# xmcd CD database file
#
# Track frame offsets:
#	150
#	15735
#	26113
#	40750
#	53943
#	68169
#	84868
#	96364
#	107940
#	121095
#	156514
#	171650
#	186657
#	197051
#	208457
#
# Disc length: 3167 seconds
#
# Revision: 0
# Processed by: cddbd v1.5.1PL2 Copyright (c) Steve Scherf et al.
# Submitted via: CDex 1.51
#
DISCID=e00c5d0f
DTITLE=Diverse - Gershwin Jazz
DYEAR=2005
DGENRE=Jazz
TTITLE0=Embraceable You - Nat King Cole
TTITLE1=I Got Rhythm - Art Tatum
TTITLE2=Do It Again - Marilyn Monroe
TTITLE3=Summertime - Sidney Bechet
TTITLE4=I Loves You Porgy - Billie Holiday
TTITLE5=Soon - Oscar Peterson
TTITLE6=S`wonderful - Peggy Lee
TTITLE7=They All Laughed - George Shearing
TTITLE8=I Was Doin`All Right - Ella Fitzgerald
TTITLE9=Love Walked In - Dave Brubeck
TTITLE10=Things Are Looking Up - Billie Holiday
TTITLE11=They Can´t Take That Away From Me - Charlie Parker
TTITLE12=Nice Work If You Can Get It - Bud Powell
TTITLE13=Love Is Here To Stay - Dinah Washington
TTITLE14=Mine - Buddy de Franco
EXTD=YEAR: 2005
EXTT0=
EXTT1=
EXTT2=
EXTT3=
EXTT4=
EXTT5=
EXTT6=
EXTT7=
EXTT8=
EXTT9=
EXTT10=
EXTT11=
EXTT12=
EXTT13=
EXTT14=
PLAYORDER=
